<?xml version="1.0" encoding="utf-8"?>
<!-- Generator: Adobe Illustrator 19.2.0, SVG Export Plug-In . SVG Version: 6.00 Build 0)  -->
<svg version="1.1" id="Layer_1" xmlns="http://www.w3.org/2000/svg" xmlns:xlink="http://www.w3.org/1999/xlink" x="0px" y="0px"
	 viewBox="0 0 352.2 258.7" style="enable-background:new 0 0 352.2 258.7;" xml:space="preserve">
<style type="text/css">
	.st0{fill:none;}
	.st1{fill:#231F20;}
</style>
<g>
	<polygon class="st0" points="112.9,30.4 94.9,30.4 88.1,66.4 106.1,66.4 	"/>
	<polygon class="st0" points="138.7,84.4 120.7,84.4 114,120.4 132,120.4 	"/>
	<polygon class="st0" points="102.7,84.4 84.7,84.4 78,120.4 96,120.4 	"/>
	<polygon class="st0" points="21.7,228.4 39.7,228.4 46.5,192.4 28.5,192.4 	"/>
	<polygon class="st0" points="76.9,30.4 58.9,30.4 52.1,66.4 70.1,66.4 	"/>
	<polygon class="st0" points="66.7,84.4 48.7,84.4 42,120.4 60,120.4 	"/>
	<polygon class="st0" points="148.9,30.4 130.9,30.4 124.1,66.4 142.1,66.4 	"/>
	<polygon class="st0" points="103.9,174.4 121.9,174.4 128.6,138.4 110.6,138.4 	"/>
	<polygon class="st0" points="150,120.4 168,120.4 174.7,84.4 156.7,84.4 	"/>
	<polygon class="st0" points="160.1,66.4 178.1,66.4 184.9,30.4 166.9,30.4 	"/>
	<polygon class="st0" points="139.9,174.4 157.9,174.4 164.6,138.4 146.6,138.4 	"/>
	<polygon class="st0" points="93.7,228.4 111.7,228.4 118.5,192.4 100.5,192.4 	"/>
	<polygon class="st0" points="129.7,228.4 147.7,228.4 154.5,192.4 136.5,192.4 	"/>
	<polygon class="st0" points="67.9,174.4 85.9,174.4 92.6,138.4 74.6,138.4 	"/>
	<polygon class="st0" points="57.7,228.4 75.7,228.4 82.5,192.4 64.5,192.4 	"/>
	<polygon class="st0" points="31.9,174.4 49.9,174.4 56.6,138.4 38.6,138.4 	"/>
	<path class="st1" d="M170.2,12.4h-18h-18h-18h-18h-18h-18h-18l-3.4,18l-6.8,36l-3.4,18l-6.8,36l-3.4,18l-6.8,36l-3.4,18l-6.8,36
		l-3.4,18h162l3.4-18l6.8-36l3.4-18l6.8-36l3.4-18l6.8-36l3.4-18l6.8-36l3.4-18h-18H170.2z M130.9,30.4h18l-6.8,36h-18L130.9,30.4z
		 M120.7,84.4h18l-6.8,36h-18L120.7,84.4z M94.9,30.4h18l-6.8,36h-18L94.9,30.4z M84.7,84.4h18l-6.8,36h-18L84.7,84.4z M58.9,30.4
		h18l-6.8,36h-18L58.9,30.4z M48.7,84.4h18l-6.8,36h-18L48.7,84.4z M39.7,228.4h-18l6.8-36h18L39.7,228.4z M49.9,174.4h-18l6.8-36
		h18L49.9,174.4z M75.7,228.4h-18l6.8-36h18L75.7,228.4z M85.9,174.4h-18l6.8-36h18L85.9,174.4z M111.7,228.4h-18l6.8-36h18
		L111.7,228.4z M121.9,174.4h-18l6.8-36h18L121.9,174.4z M147.7,228.4h-18l6.8-36h18L147.7,228.4z M157.9,174.4h-18l6.8-36h18
		L157.9,174.4z M168,120.4h-18l6.8-36h18L168,120.4z M178.1,66.4h-18l6.8-36h18L178.1,66.4z"/>
</g>
</svg>
