<?xml version="1.0" encoding="utf-8"?>
<!-- Generator: Adobe Illustrator 19.2.0, SVG Export Plug-In . SVG Version: 6.00 Build 0)  -->
<svg version="1.1" id="Layer_1" xmlns="http://www.w3.org/2000/svg" xmlns:xlink="http://www.w3.org/1999/xlink" x="0px" y="0px"
	 viewBox="0 0 352.2 258.7" style="enable-background:new 0 0 352.2 258.7;" xml:space="preserve">
<style type="text/css">
	.st0{fill:#231F20;}
</style>
<g>
	<rect x="64.8" y="48.5" class="st0" width="32.3" height="32.3"/>
	<rect x="113.3" y="16.2" class="st0" width="32.3" height="32.3"/>
	<rect x="161.8" y="0" class="st0" width="32.3" height="32.3"/>
	<path class="st0" d="M64.8,129.4V97.1c0-11.9-6.5-22.4-16.2-28c-4.8-2.7-10.2-4.3-16.2-4.3c-5.9,0-11.4,1.6-16.2,4.3
		C6.5,74.8,0,85.2,0,97.1v161.6h32.3H194v-20.2v-3.3V129.4H64.8z M32.4,242.5H16.3L16.4,97h32.2h0.1v32.3H32.5L32.4,242.5
		L32.4,242.5z M177.9,219l-41.1-41.1h-3.3h-8.1H68.8v16.2h61.3l47.8,47.8v0.7H48.6v-97h8.1h8.1H178V219H177.9z"/>
</g>
</svg>
