<?xml version="1.0" encoding="utf-8"?>
<!-- Generator: Adobe Illustrator 19.2.0, SVG Export Plug-In . SVG Version: 6.00 Build 0)  -->
<svg version="1.1" id="Layer_1" xmlns="http://www.w3.org/2000/svg" xmlns:xlink="http://www.w3.org/1999/xlink" x="0px" y="0px"
	 viewBox="0 0 352.2 258.7" style="enable-background:new 0 0 352.2 258.7;" xml:space="preserve">
<style type="text/css">
	.st0{fill:#231F20;}
</style>
<g>
	<g>
		<path class="st0" d="M299.1,120.4c-1.2,0-2.3,0-3.2,0h-1.7h-18h-18h-18h-18h-18h-18h-18H168h-18h-18h-0.1H114h-0.1H96h-0.1H78
			h-0.1H60h-0.1H42h-0.1H23.8l-3.4,18l-6.8,36l-3.4,18l-6.8,36l-3.4,18h306.5l3.4-18h0v0l6.8-36l3.4-18l6.8-36l3.4-18H299.1z
			 M291,138.4h18l-6.8,36h-18L291,138.4z M255,138.4h18l-6.8,36h0h-18L255,138.4z M219,138.4h18l-6.8,36h-18L219,138.4z M183,138.4
			h18l-6.8,36h-18L183,138.4z M146.6,138.4L146.6,138.4h18h0.1l-6.8,36h-18L146.6,138.4z M39.7,228.4h-18l6.8-36h18L39.7,228.4z
			 M49.9,174.4h-18l6.7-36h0.1h17.9h0.1L49.9,174.4z M75.7,228.4h-18l6.8-36h18L75.7,228.4z M85.9,174.4h-18l6.7-36h0.1h17.9h0.1
			L85.9,174.4z M111.7,228.4h-18l6.8-36h18L111.7,228.4z M121.9,174.4h-18l6.7-36h0.1h17.9h0.1L121.9,174.4z M129.7,228.4l6.8-36h18
			l-6.8,36H129.7z M166,228.4l6.8-36h18l-6.7,36H166z M202,228.4l6.8-36h18l-6.7,36H202z M238,228.4l6.8-36h18l-6.7,36H238z
			 M274.1,228.4l6.7-36h0.1h17.9h0.1l-6.8,36H274.1z"/>
	</g>
</g>
</svg>
