<?xml version="1.0" encoding="utf-8"?>
<!-- Generator: Adobe Illustrator 19.2.0, SVG Export Plug-In . SVG Version: 6.00 Build 0)  -->
<svg version="1.1" id="Layer_1" xmlns="http://www.w3.org/2000/svg" xmlns:xlink="http://www.w3.org/1999/xlink" x="0px" y="0px"
	 viewBox="0 0 352.2 258.7" style="enable-background:new 0 0 352.2 258.7;" xml:space="preserve">
<style type="text/css">
	.st0{fill:#231F20;}
</style>
<path class="st0" d="M237.9,197l-76.5-44.1c0-0.1,0-0.2,0-0.4c0-0.6,0-1.1-0.1-1.7c0-0.1,0-0.1,0-0.2c-0.3-4.2-1.3-8.4-3.3-12.3
	v-0.1c-0.4-0.7-0.7-1.4-1.1-2.1c-3-5.3-7.3-9.4-12.2-12.2c0.4-8.4,2.2-12.1,3-13.4l16.1-0.4l-2.7-18.6l-8.4-58.2l-2.1-14.4h-14.5
	h-8.4h-16.8v16.8v88.2l0,0c-6.9,4-11.8,10-14.5,16.9l0,0c-0.3,0.8-0.6,1.6-0.8,2.4c-0.1,0.3-0.8,3.3-0.9,3.5
	c-0.1,0.5-0.3,1.8-0.3,1.9c-0.1,0.6-0.2,2.2-0.2,2.4c0,0.5-0.1,1.7-0.1,1.8c-7.5,3.9-11.6,4.2-13.2,4.1l-8.5-13.7l-14.8,11.6
	l-46.2,36.4l-11.4,9l7.3,12.6l4.2,7.3l8.4,14.5l14.5-8.4l76.4-44.1c4.9,2.9,10.7,4.5,16.8,4.5c6.1,0,11.8-1.6,16.7-4.5
	c7.1,4.6,9.4,7.9,10.1,9.3l-7.7,14.2l17.5,7l54.6,21.8l13.5,5.4l7.3-12.6l4.2-7.3l8.4-14.5L237.9,197z M111.4,150.4
	c0-0.3,0.3-1.4,0.3-1.6c0-0.2,0.3-1.2,0.5-1.5c0,0,0,0,0-0.1c1.9-5.3,6.4-9.3,11.9-10.6h7.7c5.5,1.3,10,5.3,11.9,10.5
	c0,0.1,0.8,3.1,0.9,3.4c0,0.1,0.1,1.6,0.1,1.7c0,0.2,0,1.9-0.1,2c0,0.4-0.2,1.3-0.2,1.4c-0.1,0.5-0.5,1.9-0.5,2.1l-3.7,6.4
	c-1.1,1.2-2.4,2.2-3.9,3.1c-6.9,4-15.4,2.5-20.6-3l-3.8-6.6c0-0.1-0.6-3-0.6-3.2s-0.1-1.3-0.1-1.5
	C111.2,152.7,111.3,150.6,111.4,150.4z M127.9,35.6h8.4l8.4,58.2c0,0-13.9,0.4-16.4,25.5c-0.1,0-0.3,0-0.4,0
	C127.9,90.5,127.9,35.6,127.9,35.6z M26.4,211.5l-4.2-7.3l46.2-36.3c0,0,7.3,11.9,30.3,1.4c0.1,0.1,0.1,0.2,0.2,0.3
	C73.9,184,26.4,211.5,26.4,211.5z M225.3,218.8L170.7,197c0,0,6.6-12.3-13.9-27c0.1-0.1,0.1-0.2,0.2-0.3
	c25,14.4,72.5,41.9,72.5,41.9L225.3,218.8z"/>
</svg>
